# xmcd
#
# Track frame offsets: 
#        210
#        13644
#        27504
#        41236
#        54005
#        66343
#        78065
#        92043
#        104795
#        116233
#        129857
#        143485
#        157660
#        170161
#        181602
#        195646
#        207588
#        219800
#        232928
#        246876
#        259332
#        273943
#
# Disc length: 3811 seconds
#
# Revision: 1
# Processed by: cddbd v1.5.2PL0 Copyright (c) Steve Scherf et al.
# Submitted via: ExactAudioCopyFreeDBPlugin 1.0
#
DISCID=2c0ee116
DTITLE=Jimmie Gordon - Complete Recorded Works Vol, 2 (1936-1938)
DYEAR=1999
DGENRE=Blues
TTITLE0=Jacksonville - Part 1
TTITLE1=Jacksonville - Part 2
TTITLE2=Think You Need a Shot
TTITLE3=C. C. and St. Louis Blues
TTITLE4=Playing in the Grass
TTITLE5=You're Bound to Look Like a Monkey (When You Get Old)
TTITLE6=Good as I Been to You
TTITLE7=Rattlesnake Bite
TTITLE8=I Believe I Been Hoodooed
TTITLE9=She Wants to Rattle Me All the Time
TTITLE10=Plenty Trouble on Your Hand
TTITLE11=Crying My Blues Away
TTITLE12=Fast Life
TTITLE13=Sail with Me
TTITLE14=Lonesome Bedroom Blues
TTITLE15=Alberta Alberta
TTITLE16=She's Doin' It Now
TTITLE17=Keep Your Nose out of Other People's Business
TTITLE18=Bleeding Heart Blues
TTITLE19=Number Runner's Blues
TTITLE20=Me and My Gin
TTITLE21=Whip It to a Jelly
EXTD=
EXTT0=
EXTT1=
EXTT2=
EXTT3=
EXTT4=
EXTT5=
EXTT6=
EXTT7=
EXTT8=
EXTT9=
EXTT10=
EXTT11=
EXTT12=
EXTT13=
EXTT14=
EXTT15=
EXTT16=
EXTT17=
EXTT18=
EXTT19=
EXTT20=
EXTT21=
PLAYORDER=
